<svg width="324" height="323" viewBox="0 0 324 323" fill="none" xmlns="http://www.w3.org/2000/svg">
<path d="M195.038 4.85391C200.469 -0.442249 209.589 2.0014 211.645 9.30378L220.253 39.8817C221.766 45.2546 227.384 48.349 232.733 46.7558L263.178 37.6887C270.449 35.5233 277.389 41.9252 275.815 49.3465L269.227 80.4225C268.07 85.8828 271.606 91.2337 277.083 92.309L308.255 98.4289C315.699 99.8904 318.868 108.784 314.027 114.624L293.751 139.079C290.189 143.376 290.834 149.757 295.184 153.255L319.941 173.16C325.853 177.913 324.526 187.261 317.525 190.182L288.208 202.414C283.056 204.563 280.662 210.513 282.888 215.631L295.559 244.761C298.585 251.718 293.066 259.379 285.509 258.711L253.866 255.917C248.306 255.426 243.42 259.582 243.013 265.149L240.695 296.831C240.141 304.397 231.694 308.615 225.313 304.512L198.593 287.333C193.898 284.314 187.641 285.724 184.693 290.463L167.917 317.439C163.911 323.881 154.471 323.691 150.728 317.093L135.052 289.464C132.297 284.609 126.102 282.949 121.289 285.776L93.8988 301.866C87.3576 305.708 79.0877 301.153 78.8392 293.571L77.7988 261.821C77.616 256.243 72.9017 251.893 67.3264 252.16L35.5961 253.678C28.0185 254.04 22.8127 246.164 26.1163 239.335L39.9498 210.738C42.3804 205.714 40.2272 199.672 35.1666 197.317L6.36552 183.915C-0.512524 180.715 -1.46159 171.321 4.63726 166.809L30.1756 147.917C34.6629 144.598 35.5641 138.247 32.1775 133.81L12.9035 108.559C8.3007 102.529 11.8258 93.7701 19.3227 92.6095L50.7154 87.7497C56.2313 86.8958 59.9804 81.6916 59.0437 76.1891L53.7123 44.8731C52.4391 37.3945 59.6308 31.2772 66.8084 33.7336L96.8637 44.0193C102.145 45.8266 107.883 42.9608 109.61 37.6533L119.443 7.44673C121.791 0.233045 131.002 -1.84138 136.216 3.66919L158.049 26.7441C161.885 30.7986 168.297 30.9277 172.294 27.031L195.038 4.85391Z" fill="#E6FF28"/>
</svg>
