<svg width="390" height="389" viewBox="0 0 390 389" fill="none" xmlns="http://www.w3.org/2000/svg">
<g style="mix-blend-mode:hard-light" filter="url(#filter0_f_444_207)">
<path d="M231.47 25.0448C236.901 19.7487 246.021 22.1923 248.077 29.4947L257.91 64.4256C259.423 69.7984 265.041 72.8929 270.391 71.2997L305.17 60.9417C312.44 58.7764 319.38 65.1783 317.807 72.5996L310.281 108.099C309.123 113.56 312.66 118.911 318.137 119.986L353.746 126.977C361.19 128.439 364.359 137.332 359.517 143.172L336.356 171.108C332.794 175.405 333.438 181.787 337.788 185.284L366.07 208.023C371.982 212.776 370.655 222.124 363.654 225.045L330.163 239.018C325.012 241.167 322.617 247.117 324.843 252.235L339.318 285.512C342.344 292.469 336.825 300.13 329.268 299.462L293.12 296.27C287.56 295.779 282.675 299.935 282.267 305.502L279.619 341.694C279.066 349.26 270.619 353.478 264.238 349.376L233.714 329.751C229.019 326.732 222.762 328.141 219.814 332.881L200.65 363.697C196.644 370.139 187.204 369.949 183.461 363.351L165.553 331.788C162.799 326.933 156.603 325.273 151.79 328.101L120.501 346.481C113.96 350.323 105.69 345.768 105.441 338.186L104.253 301.917C104.07 296.338 99.3556 291.989 93.7803 292.255L57.533 293.989C49.9554 294.352 44.7496 286.475 48.0532 279.646L63.856 246.979C66.2867 241.954 64.1335 235.912 59.0729 233.558L26.1718 218.248C19.2937 215.047 18.3447 205.654 24.4435 201.142L53.6173 179.561C58.1047 176.241 59.0058 169.891 55.6192 165.454L33.6016 136.608C28.9987 130.578 32.5238 121.819 40.0207 120.658L75.8823 115.107C81.3982 114.253 85.1473 109.049 84.2106 103.546L78.1203 67.772C76.8471 60.2934 84.0388 54.1761 91.2164 56.6325L125.55 68.3824C130.831 70.1897 136.569 67.324 138.297 62.0164L149.529 27.5098C151.877 20.2962 161.088 18.2217 166.302 23.7323L191.243 50.0921C195.079 54.1465 201.492 54.2757 205.488 50.379L231.47 25.0448Z" fill="#E6FF28" fill-opacity="0.76"/>
</g>
<defs>
<filter id="filter0_f_444_207" x="0.389648" y="0.600586" width="389.416" height="387.815" filterUnits="userSpaceOnUse" color-interpolation-filters="sRGB">
<feFlood flood-opacity="0" result="BackgroundImageFix"/>
<feBlend mode="normal" in="SourceGraphic" in2="BackgroundImageFix" result="shape"/>
<feGaussianBlur stdDeviation="10" result="effect1_foregroundBlur_444_207"/>
</filter>
</defs>
</svg>
