<svg width="161" height="161" viewBox="0 0 161 161" fill="none" xmlns="http://www.w3.org/2000/svg">
<g style="mix-blend-mode:hard-light" filter="url(#filter0_f_602_155)">
<path d="M47.8863 45.2236C46.9228 42.5284 49.9213 40.1433 52.3307 41.6884L64.4397 49.4536C66.1853 50.5731 68.5131 49.6261 68.9816 47.606L72.2312 33.5929C72.8778 30.8047 76.6898 30.4193 77.8813 33.0217L83.8699 46.1009C84.7332 47.9864 87.2034 48.4482 88.6897 47.0021L98.9995 36.9704C101.051 34.9744 104.466 36.7111 104.061 39.5446L102.028 53.7851C101.735 55.838 103.563 57.5621 105.596 57.149L119.692 54.2837C122.497 53.7136 124.431 57.021 122.559 59.186L113.15 70.0666C111.793 71.6352 112.399 74.0741 114.332 74.8252L127.74 80.0361C130.408 81.0729 130.247 84.9009 127.501 85.71L113.703 89.7762C111.714 90.3624 110.905 92.7417 112.125 94.4187L120.587 106.051C122.271 108.366 120.066 111.499 117.319 110.695L103.513 106.656C101.523 106.074 99.5558 107.638 99.6755 109.709L100.505 124.07C100.671 126.927 97.1215 128.371 95.2451 126.209L85.8143 115.347C84.4547 113.781 81.9545 114.034 80.9358 115.84L73.8699 128.37C72.464 130.863 68.6978 130.159 68.2877 127.327L66.2266 113.09C65.9294 111.038 63.6894 109.899 61.8559 110.867L49.1375 117.588C46.6069 118.925 43.8193 116.297 45.0057 113.692L50.9686 100.601C51.8283 98.7141 50.5597 96.5448 48.4934 96.3686L34.1605 95.1463C31.3087 94.9031 30.3847 91.1848 32.791 89.635L44.8848 81.846C46.6282 80.7232 46.7339 78.2124 45.0909 76.9471L33.6941 68.1698C31.4264 66.4234 32.6594 62.7958 35.5216 62.793L49.9066 62.7789C51.9803 62.7769 53.4266 60.7218 52.7286 58.7691L47.8863 45.2236Z" fill="#FF5100"/>
</g>
<path d="M49.4248 46.7998C49.048 44.4859 51.3519 42.6533 53.5217 43.541L67.1819 49.1292C68.5568 49.6917 70.1364 49.1632 70.8959 47.8865L78.4424 35.2027C79.6411 33.1879 82.5839 33.265 83.6755 35.3397L90.5477 48.4011C91.2394 49.7158 92.7892 50.3263 94.1917 49.8365L108.126 44.9708C110.339 44.198 112.544 46.1486 112.046 48.4396L108.915 62.8626C108.6 64.3144 109.395 65.7782 110.784 66.3045L124.585 71.5337C126.778 72.3644 127.213 75.2758 125.359 76.7112L113.69 85.7471C112.515 86.6566 112.183 88.2888 112.909 89.5849L120.12 102.462C121.266 104.508 119.727 107.018 117.385 106.926L102.637 106.347C101.153 106.288 99.8492 107.325 99.5721 108.785L96.8189 123.285C96.3816 125.588 93.5899 126.522 91.8545 124.946L80.9295 115.022C79.8298 114.024 78.1648 113.98 77.0143 114.92L65.5849 124.258C63.7694 125.741 61.0304 124.662 60.7142 122.339L58.7237 107.715C58.5233 106.243 57.2759 105.139 55.7904 105.12L41.0327 104.926C38.6885 104.896 37.2838 102.309 38.5348 100.326L46.4102 87.8436C47.2029 86.5872 46.9567 84.9399 45.8313 83.9701L34.6506 74.3359C32.8746 72.8055 33.4615 69.9208 35.6943 69.206L49.7506 64.7063C51.1654 64.2534 52.0357 62.8332 51.7969 61.3669L49.4248 46.7998Z" fill="#FF5100"/>
<defs>
<filter id="filter0_f_602_155" x="0.412109" y="0.27002" width="160.241" height="160.629" filterUnits="userSpaceOnUse" color-interpolation-filters="sRGB">
<feFlood flood-opacity="0" result="BackgroundImageFix"/>
<feBlend mode="normal" in="SourceGraphic" in2="BackgroundImageFix" result="shape"/>
<feGaussianBlur stdDeviation="15.5" result="effect1_foregroundBlur_602_155"/>
</filter>
</defs>
</svg>
