<svg width="281" height="281" viewBox="0 0 281 281" fill="none" xmlns="http://www.w3.org/2000/svg">
<g style="mix-blend-mode:hard-light" filter="url(#filter0_f_444_219)">
<path d="M162.769 24.544C168.2 19.2479 177.32 21.6915 179.376 28.9939L184.139 45.9138C185.652 51.2866 191.27 54.3811 196.619 52.7879L213.466 47.7707C220.736 45.6054 227.676 52.0073 226.102 59.4286L222.457 76.6241C221.3 82.0844 224.836 87.4353 230.313 88.5106L247.562 91.897C255.006 93.3585 258.175 102.252 253.333 108.092L242.114 121.624C238.552 125.921 239.197 132.302 243.547 135.8L257.245 146.814C263.158 151.568 261.831 160.915 254.83 163.836L238.607 170.604C233.456 172.754 231.061 178.704 233.288 183.822L240.299 199.941C243.325 206.898 237.806 214.558 230.249 213.891L212.74 212.345C207.18 211.854 202.294 216.01 201.887 221.576L200.604 239.107C200.051 246.673 191.604 250.892 185.223 246.789L170.437 237.283C165.742 234.264 159.485 235.673 156.538 240.413L147.255 255.34C143.249 261.782 133.809 261.592 130.065 254.994L121.391 239.705C118.637 234.851 112.442 233.191 107.629 236.018L92.4726 244.921C85.9315 248.763 77.6615 244.208 77.413 236.626L76.8373 219.058C76.6545 213.479 71.9402 209.13 66.3649 209.397L48.8074 210.236C41.2298 210.599 36.024 202.722 39.3276 195.893L46.9822 180.07C49.4128 175.045 47.2596 169.003 42.199 166.649L26.2623 159.233C19.3842 156.032 18.4352 146.639 24.534 142.127L38.6653 131.673C43.1526 128.354 44.0538 122.003 40.6672 117.567L30.0022 103.594C25.3994 97.5637 28.9245 88.8049 36.4214 87.6444L53.7921 84.9553C59.3081 84.1013 63.0572 78.8972 62.1204 73.3947L59.1704 56.0664C57.8972 48.5877 65.0889 42.4705 72.2665 44.9268L88.8972 50.6183C94.1782 52.4256 99.9163 49.5598 101.644 44.2523L107.085 27.5379C109.433 20.3242 118.644 18.2498 123.858 23.7603L135.938 36.5285C139.775 40.583 146.187 40.7122 150.184 36.8155L162.769 24.544Z" fill="#DDB7FF" fill-opacity="0.84"/>
</g>
<defs>
<filter id="filter0_f_444_219" x="0.47998" y="0.628906" width="280.501" height="279.43" filterUnits="userSpaceOnUse" color-interpolation-filters="sRGB">
<feFlood flood-opacity="0" result="BackgroundImageFix"/>
<feBlend mode="normal" in="SourceGraphic" in2="BackgroundImageFix" result="shape"/>
<feGaussianBlur stdDeviation="10" result="effect1_foregroundBlur_444_219"/>
</filter>
</defs>
</svg>
