<svg width="229" height="228" viewBox="0 0 229 228" fill="none" xmlns="http://www.w3.org/2000/svg">
<path d="M139.01 3.46673C142.269 0.289037 147.741 1.75521 148.974 6.13664L155.741 30.1741C156.649 33.3978 160.02 35.2545 163.229 34.2985L187.162 27.1708C191.525 25.8716 195.688 29.7127 194.745 34.1655L189.566 58.5944C188.871 61.8706 190.993 65.0812 194.279 65.7263L218.783 70.5372C223.25 71.4142 225.152 76.7503 222.246 80.2544L206.308 99.4783C204.171 102.056 204.557 105.885 207.167 107.984L226.629 123.631C230.176 126.483 229.38 132.092 225.18 133.845L202.133 143.46C199.042 144.749 197.605 148.319 198.941 151.39L208.902 174.29C210.717 178.464 207.406 183.06 202.872 182.66L177.997 180.463C174.661 180.169 171.73 182.662 171.485 186.002L169.663 210.907C169.331 215.447 164.263 217.978 160.434 215.517L139.429 202.012C136.612 200.2 132.858 201.046 131.089 203.89L117.902 225.096C115.498 228.961 109.834 228.847 107.588 224.888L95.2651 203.168C93.6125 200.256 89.8952 199.26 87.0076 200.956L65.4759 213.604C61.5512 215.909 56.5892 213.176 56.4401 208.627L55.6222 183.669C55.5125 180.321 52.6839 177.712 49.3388 177.872L24.3955 179.065C19.8489 179.283 16.7254 174.557 18.7076 170.459L29.5822 147.979C31.0405 144.965 29.7486 141.34 26.7123 139.927L4.07163 129.391C-0.0551952 127.471 -0.624658 121.835 3.03466 119.128L23.1104 104.277C25.8028 102.285 26.3435 98.4749 24.3116 95.8127L9.16024 75.9625C6.39854 72.3444 8.5136 67.0891 13.0118 66.3928L37.6896 62.5724C40.9992 62.0601 43.2487 58.9376 42.6866 55.6361L38.4956 31.0185C37.7317 26.5313 42.0467 22.8609 46.3533 24.3347L69.9798 32.4204C73.1484 33.5048 76.5913 31.7853 77.6279 28.6008L85.3574 4.85531C86.7663 0.5271 92.2927 -0.717553 95.4211 2.58879L112.584 20.7281C114.885 23.1608 118.733 23.2383 121.131 20.9002L139.01 3.46673Z" fill="#DDB7FF" fill-opacity="0.84"/>
</svg>
