<svg width="150" height="150" viewBox="0 0 150 150" fill="none" xmlns="http://www.w3.org/2000/svg">
<g style="mix-blend-mode:hard-light" filter="url(#filter0_f_602_154)">
<path d="M46.1521 44.4581C45.1886 41.763 48.1871 39.3779 50.5964 40.9229L60.2162 47.0918C61.9618 48.2113 64.2896 47.2643 64.7581 45.2442L67.3397 34.1118C67.9862 31.3236 71.7982 30.9382 72.9898 33.5406L77.7472 43.9311C78.6106 45.8165 81.0808 46.2784 82.567 44.8323L90.7574 36.8628C92.8088 34.8668 96.224 36.6035 95.8195 39.437L94.2042 50.7501C93.9111 52.803 95.7394 54.527 97.7716 54.114L108.97 51.8377C111.775 51.2676 113.709 54.575 111.837 56.74L104.362 65.3839C103.006 66.9524 103.612 69.3913 105.544 70.1425L116.196 74.2821C118.864 75.3189 118.703 79.1469 115.957 79.956L104.996 83.1863C103.007 83.7725 102.198 86.1519 103.418 87.8288L110.14 97.07C111.824 99.3846 109.619 102.518 106.872 101.714L95.904 98.5053C93.9137 97.923 91.947 99.4874 92.0666 101.558L92.726 112.966C92.8911 115.824 89.3421 117.268 87.4656 115.106L79.9736 106.477C78.614 104.911 76.1137 105.164 75.0951 106.97L69.4817 116.924C68.0758 119.418 64.3096 118.713 63.8995 115.881L62.2621 104.571C61.965 102.518 59.725 101.379 57.8915 102.348L47.7876 107.687C45.257 109.025 42.4694 106.396 43.6558 103.791L48.3929 93.3916C49.2526 91.5044 47.984 89.335 45.9177 89.1588L34.5313 88.1878C31.6794 87.9446 30.7555 84.2263 33.1618 82.6765L42.7694 76.4887C44.5128 75.3659 44.6185 72.8551 42.9755 71.5897L33.9216 64.6169C31.6539 62.8705 32.8869 59.2429 35.7491 59.2401L47.1769 59.2289C49.2507 59.2268 50.697 57.1717 49.9989 55.219L46.1521 44.4581Z" fill="white"/>
</g>
<path d="M46.9706 48.2145C46.5938 45.9006 48.8977 44.068 51.0675 44.9557L62.4632 49.6175C63.8381 50.18 65.4177 49.6515 66.1773 48.3748L72.4727 37.7936C73.6714 35.7788 76.6142 35.8559 77.7058 37.9306L83.4388 48.8268C84.1305 50.1415 85.6802 50.7519 87.0828 50.2622L98.7068 46.2031C100.92 45.4303 103.125 47.3809 102.627 49.6719L100.015 61.7039C99.7001 63.1557 100.495 64.6195 101.884 65.1458L113.398 69.5082C115.59 70.3388 116.025 73.2503 114.171 74.6856L104.436 82.2236C103.262 83.1331 102.93 84.7653 103.656 86.0614L109.671 96.804C110.817 98.8495 109.279 101.36 106.936 101.268L94.6333 100.784C93.1489 100.726 91.8454 101.763 91.5683 103.222L89.2715 115.319C88.8342 117.622 86.0425 118.556 84.3071 116.98L75.1932 108.701C74.0935 107.703 72.4284 107.659 71.278 108.599L61.7433 116.389C59.9278 117.872 57.1888 116.793 56.8726 114.47L55.2121 102.27C55.0117 100.798 53.7643 99.6947 52.2788 99.6753L39.9675 99.5139C37.6234 99.4831 36.2187 96.8961 37.4697 94.9133L44.0395 84.5003C44.8322 83.2439 44.586 81.5966 43.4606 80.6269L34.1334 72.5897C32.3574 71.0594 32.9443 68.1746 35.177 67.4599L46.9032 63.7061C48.318 63.2532 49.1883 61.833 48.9495 60.3667L46.9706 48.2145Z" fill="white"/>
<defs>
<filter id="filter0_f_602_154" x="0.782715" y="0.789062" width="148.327" height="148.664" filterUnits="userSpaceOnUse" color-interpolation-filters="sRGB">
<feFlood flood-opacity="0" result="BackgroundImageFix"/>
<feBlend mode="normal" in="SourceGraphic" in2="BackgroundImageFix" result="shape"/>
<feGaussianBlur stdDeviation="15.5" result="effect1_foregroundBlur_602_154"/>
</filter>
</defs>
</svg>
