<svg width="40" height="40" viewBox="0 0 40 40" fill="none" xmlns="http://www.w3.org/2000/svg">
<path d="M1.5 27.6299V27.6294V12.3442C1.5049 9.46869 2.65039 6.7123 4.68558 4.67941C6.7209 2.6464 9.47991 1.50294 12.3577 1.5H27.6423C30.5201 1.50294 33.2791 2.6464 35.3144 4.67941C37.3493 6.712 38.4948 9.46789 38.5 12.3429C38.5 12.343 38.5 12.3431 38.5 12.3431C38.5 12.3439 38.5 12.3446 38.5 12.3453L38.5 27.6294V27.6299C38.5009 30.5099 37.3579 33.2725 35.3218 35.3108C33.2858 37.3492 30.5232 38.4963 27.6411 38.5H12.3589C9.4768 38.4963 6.71423 37.3492 4.67816 35.3108C2.6421 33.2725 1.49908 30.5099 1.5 27.6299ZM12.357 2.94093C9.86259 2.94093 7.47024 3.93132 5.70623 5.69446C3.94219 7.45762 2.95103 9.84914 2.95103 12.3429V27.6294C2.95103 30.1232 3.94219 32.5147 5.70623 34.2779C7.47023 36.041 9.86259 37.0314 12.357 37.0314H27.643C30.1374 37.0314 32.5298 36.041 34.2938 34.2779C36.0578 32.5147 37.049 30.1232 37.049 27.6294V12.3429C37.049 9.84914 36.0578 7.45762 34.2938 5.69446C32.5298 3.93132 30.1374 2.94093 27.643 2.94093H12.357Z" fill="white" stroke="white" stroke-width="3"/>
<path d="M20 32.5C17.5277 32.5 15.111 31.7669 13.0554 30.3934C10.9998 29.0199 9.39761 27.0676 8.45151 24.7835C7.50542 22.4995 7.25787 19.9861 7.74019 17.5614C8.2225 15.1366 9.41301 12.9093 11.1612 11.1612C12.9093 9.41301 15.1366 8.2225 17.5614 7.74019C19.9861 7.25787 22.4995 7.50542 24.7835 8.45151C27.0676 9.39761 29.0199 10.9998 30.3934 13.0554C31.7669 15.111 32.5 17.5277 32.5 20C32.4949 23.3136 31.1763 26.4901 28.8332 28.8332C26.4901 31.1763 23.3136 32.4949 20 32.5ZM20 12.4062C18.4981 12.4062 17.0299 12.8516 15.7811 13.686C14.5323 14.5204 13.559 15.7064 12.9843 17.094C12.4095 18.4816 12.2591 20.0084 12.5521 21.4815C12.8451 22.9545 13.5684 24.3076 14.6304 25.3696C15.6924 26.4316 17.0455 27.1549 18.5185 27.4479C19.9916 27.7409 21.5184 27.5905 22.906 27.0157C24.2936 26.441 25.4796 25.4677 26.314 24.2189C27.1484 22.9701 27.5938 21.5019 27.5938 20C27.5925 17.9864 26.792 16.0556 25.3682 14.6318C23.9444 13.208 22.0136 12.4075 20 12.4062Z" fill="white"/>
<path d="M30 12.5C31.3807 12.5 32.5 11.3807 32.5 10C32.5 8.61929 31.3807 7.5 30 7.5C28.6193 7.5 27.5 8.61929 27.5 10C27.5 11.3807 28.6193 12.5 30 12.5Z" fill="white"/>
</svg>
