<svg width="41" height="40" viewBox="0 0 41 40" fill="none" xmlns="http://www.w3.org/2000/svg">
<path d="M8 15H0.5V40H8V15Z" fill="white"/>
<path d="M18 15.0327H24.6425V18.5014C24.6425 18.5014 25.6634 15 31.8022 15C36.8752 15 40.5 17.0495 40.5 22.6797V40H33.4078C33.4078 40 33.4437 25.4342 33.4842 24.986C33.5247 24.5378 33.0929 20.8637 29.4771 20.8637C25.8613 20.8637 24.719 23.5761 24.719 25.5976V40H18V15.0327Z" fill="white"/>
<path d="M4.25 7.5C6.32107 7.5 8 5.82107 8 3.75C8 1.67893 6.32107 0 4.25 0C2.17893 0 0.5 1.67893 0.5 3.75C0.5 5.82107 2.17893 7.5 4.25 7.5Z" fill="white"/>
</svg>
