<svg width="650" height="349" viewBox="0 0 650 349" fill="none" xmlns="http://www.w3.org/2000/svg">
<g clip-path="url(#clip0_488_434)">
<mask id="mask0_488_434" style="mask-type:luminance" maskUnits="userSpaceOnUse" x="0" y="0" width="650" height="349">
<path d="M650 0H0V349H650V0Z" fill="white"/>
</mask>
<g mask="url(#mask0_488_434)">
<path d="M140 50H110C104.477 50 100 54.4772 100 60V90C100 95.5228 104.477 100 110 100H140C145.523 100 150 95.5228 150 90V60C150 54.4772 145.523 50 140 50Z" fill="#FF5100"/>
<path d="M294 299H264C258.477 299 254 303.477 254 309V339C254 344.523 258.477 349 264 349H294C299.523 349 304 344.523 304 339V309C304 303.477 299.523 299 294 299Z" fill="#E6FF28"/>
<path d="M90 0H60C54.4772 0 50 4.47715 50 10V40C50 45.5228 54.4772 50 60 50H90C95.5228 50 100 45.5228 100 40V10C100 4.47715 95.5228 0 90 0Z" fill="#E6FF28"/>
<path d="M640 199H610C604.477 199 600 203.477 600 209V239C600 244.523 604.477 249 610 249H640C645.523 249 650 244.523 650 239V209C650 203.477 645.523 199 640 199Z" fill="#E6FF28"/>
<path d="M640 299H610C604.477 299 600 303.477 600 309V339C600 344.523 604.477 349 610 349H640C645.523 349 650 344.523 650 339V309C650 303.477 645.523 299 640 299Z" fill="#E6FF28"/>
<path d="M40 99H10C4.47715 99 0 103.477 0 109V139C0 144.523 4.47715 149 10 149H40C45.5228 149 50 144.523 50 139V109C50 103.477 45.5228 99 40 99Z" fill="#E6FF28"/>
<path d="M340 250H310C304.477 250 300 254.477 300 260V290C300 295.523 304.477 300 310 300H340C345.523 300 350 295.523 350 290V260C350 254.477 345.523 250 340 250Z" fill="#E6FF28"/>
<path d="M440 49H410C404.477 49 400 53.4772 400 59V89C400 94.5228 404.477 99 410 99H440C445.523 99 450 94.5228 450 89V59C450 53.4772 445.523 49 440 49Z" fill="#E6FF28"/>
<path d="M95 250H65C59.4772 250 55 254.477 55 260V290C55 295.523 59.4772 300 65 300H95C100.523 300 105 295.523 105 290V260C105 254.477 100.523 250 95 250Z" fill="#DDB7FF"/>
<path d="M410 151C404.477 151 400 155.477 400 161V289C400 294.523 404.477 299 410 299H587C592.523 299 597 294.523 597 289V259C597 253.477 592.523 249 587 249H548V210C548 204.477 543.523 200 538 200H450V161C450 155.477 445.523 151 440 151H410Z" fill="#E6FF28"/>
<path d="M390 100C395.523 100 400 104.477 400 110V140C400 145.523 395.523 150 390 150H349V189C349 194.523 344.523 199 339 199H300V238C300 243.523 295.523 248 290 248H113C107.477 248 103 243.523 103 238V159C103 153.477 107.477 149 113 149H143C148.523 149 153 153.477 153 159V198H250V150H164C158.477 150 154 145.523 154 140V110C154 104.477 158.477 100 164 100H390Z" fill="#E6FF28"/>
<path d="M460 100C454.477 100 450 104.477 450 110V140C450 145.523 454.477 150 460 150H588C593.523 150 598 145.523 598 140V110C598 104.477 593.523 100 588 100H460Z" fill="#E6FF28"/>
<path d="M418.465 242V224.938H422.883C423.672 224.938 424.41 225.035 425.098 225.23C425.785 225.418 426.41 225.688 426.973 226.039C427.465 226.328 427.902 226.684 428.285 227.105C428.676 227.52 429.016 227.973 429.305 228.465C429.641 229.066 429.898 229.73 430.078 230.457C430.266 231.184 430.359 231.957 430.359 232.777V234.184C430.359 234.973 430.273 235.719 430.102 236.422C429.93 237.125 429.688 237.77 429.375 238.355C429.078 238.879 428.73 239.363 428.332 239.809C427.934 240.246 427.496 240.613 427.02 240.91C426.465 241.262 425.852 241.531 425.18 241.719C424.516 241.906 423.805 242 423.047 242H418.465ZM421.781 227.609V239.352H423.047C423.453 239.352 423.832 239.301 424.184 239.199C424.535 239.098 424.855 238.949 425.145 238.754C425.441 238.551 425.707 238.293 425.941 237.98C426.184 237.66 426.391 237.289 426.562 236.867C426.703 236.5 426.809 236.094 426.879 235.648C426.957 235.195 426.996 234.707 426.996 234.184V232.754C426.996 232.262 426.957 231.797 426.879 231.359C426.809 230.914 426.703 230.508 426.562 230.141C426.391 229.703 426.164 229.312 425.883 228.969C425.609 228.625 425.289 228.344 424.922 228.125C424.641 227.961 424.328 227.836 423.984 227.75C423.648 227.656 423.281 227.609 422.883 227.609H421.781ZM433.934 229.32H440.836V239.352H444.27V242H433.934V239.352H437.543V231.98H433.934V229.32ZM437.309 226.074C437.309 225.824 437.352 225.594 437.438 225.383C437.531 225.164 437.66 224.977 437.824 224.82C437.988 224.672 438.184 224.555 438.41 224.469C438.645 224.383 438.902 224.34 439.184 224.34C439.762 224.34 440.219 224.504 440.555 224.832C440.898 225.152 441.07 225.566 441.07 226.074C441.07 226.582 440.898 227 440.555 227.328C440.219 227.648 439.762 227.809 439.184 227.809C438.902 227.809 438.645 227.766 438.41 227.68C438.184 227.594 437.988 227.473 437.824 227.316C437.66 227.168 437.531 226.988 437.438 226.777C437.352 226.559 437.309 226.324 437.309 226.074ZM447.152 235.566C447.152 234.605 447.27 233.727 447.504 232.93C447.746 232.133 448.09 231.449 448.535 230.879C448.98 230.309 449.52 229.867 450.152 229.555C450.785 229.242 451.5 229.086 452.297 229.086C452.727 229.086 453.117 229.129 453.469 229.215C453.828 229.293 454.152 229.414 454.441 229.578C454.66 229.695 454.863 229.836 455.051 230C455.238 230.156 455.41 230.332 455.566 230.527L455.695 229.32H458.66V241.59C458.66 242.449 458.512 243.215 458.215 243.887C457.926 244.559 457.52 245.125 456.996 245.586C456.465 246.047 455.828 246.395 455.086 246.629C454.352 246.871 453.539 246.992 452.648 246.992C452.266 246.992 451.855 246.953 451.418 246.875C450.98 246.797 450.547 246.676 450.117 246.512C449.688 246.348 449.281 246.137 448.898 245.879C448.516 245.629 448.188 245.328 447.914 244.977L449.379 242.996C449.59 243.238 449.816 243.449 450.059 243.629C450.301 243.816 450.555 243.969 450.82 244.086C451.078 244.203 451.344 244.289 451.617 244.344C451.898 244.406 452.188 244.438 452.484 244.438C452.961 244.438 453.383 244.371 453.75 244.238C454.125 244.105 454.438 243.91 454.688 243.652C454.914 243.418 455.086 243.129 455.203 242.785C455.328 242.441 455.391 242.055 455.391 241.625V240.898C455.234 241.07 455.07 241.227 454.898 241.367C454.727 241.508 454.543 241.633 454.348 241.742C454.059 241.898 453.738 242.02 453.387 242.105C453.043 242.191 452.672 242.234 452.273 242.234C451.484 242.234 450.773 242.074 450.141 241.754C449.516 241.426 448.98 240.977 448.535 240.406C448.09 239.836 447.746 239.16 447.504 238.379C447.27 237.59 447.152 236.734 447.152 235.812V235.566ZM450.422 235.812C450.422 236.344 450.473 236.84 450.574 237.301C450.684 237.754 450.848 238.148 451.066 238.484C451.285 238.828 451.562 239.098 451.898 239.293C452.234 239.488 452.633 239.586 453.094 239.586C453.375 239.586 453.629 239.559 453.855 239.504C454.09 239.449 454.301 239.371 454.488 239.27C454.684 239.16 454.855 239.027 455.004 238.871C455.152 238.715 455.281 238.539 455.391 238.344V232.977C455.273 232.758 455.133 232.566 454.969 232.402C454.805 232.238 454.617 232.105 454.406 232.004C454.227 231.918 454.027 231.852 453.809 231.805C453.598 231.758 453.367 231.734 453.117 231.734C452.656 231.734 452.258 231.836 451.922 232.039C451.586 232.234 451.309 232.504 451.09 232.848C450.863 233.199 450.695 233.609 450.586 234.078C450.477 234.539 450.422 235.035 450.422 235.566V235.812ZM462.762 229.32H469.664V239.352H473.098V242H462.762V239.352H466.371V231.98H462.762V229.32ZM466.137 226.074C466.137 225.824 466.18 225.594 466.266 225.383C466.359 225.164 466.488 224.977 466.652 224.82C466.816 224.672 467.012 224.555 467.238 224.469C467.473 224.383 467.73 224.34 468.012 224.34C468.59 224.34 469.047 224.504 469.383 224.832C469.727 225.152 469.898 225.566 469.898 226.074C469.898 226.582 469.727 227 469.383 227.328C469.047 227.648 468.59 227.809 468.012 227.809C467.73 227.809 467.473 227.766 467.238 227.68C467.012 227.594 466.816 227.473 466.652 227.316C466.488 227.168 466.359 226.988 466.266 226.777C466.18 226.559 466.137 226.324 466.137 226.074ZM482.285 226.215V229.32H487.02V231.723H482.285V237.172C482.285 237.633 482.336 238.02 482.438 238.332C482.547 238.637 482.699 238.879 482.895 239.059C483.09 239.246 483.324 239.379 483.598 239.457C483.879 239.535 484.191 239.574 484.535 239.574C484.785 239.574 485.039 239.562 485.297 239.539C485.562 239.516 485.816 239.484 486.059 239.445C486.293 239.414 486.512 239.379 486.715 239.34C486.926 239.301 487.105 239.262 487.254 239.223L487.57 241.461C487.344 241.594 487.078 241.711 486.773 241.812C486.469 241.906 486.145 241.984 485.801 242.047C485.457 242.109 485.098 242.156 484.723 242.188C484.355 242.227 483.992 242.246 483.633 242.246C482.938 242.246 482.305 242.156 481.734 241.977C481.172 241.789 480.691 241.5 480.293 241.109C479.887 240.727 479.574 240.238 479.355 239.645C479.137 239.043 479.027 238.324 479.027 237.488V231.723H476.133V229.32H479.027V226.215H482.285ZM498.645 242C498.566 241.844 498.5 241.664 498.445 241.461C498.391 241.258 498.344 241.043 498.305 240.816C498.125 241.012 497.918 241.195 497.684 241.367C497.449 241.539 497.191 241.688 496.91 241.812C496.621 241.945 496.305 242.047 495.961 242.117C495.617 242.195 495.246 242.234 494.848 242.234C494.199 242.234 493.602 242.141 493.055 241.953C492.516 241.766 492.051 241.504 491.66 241.168C491.27 240.832 490.965 240.434 490.746 239.973C490.527 239.504 490.418 238.996 490.418 238.449C490.418 237.746 490.555 237.125 490.828 236.586C491.102 236.039 491.512 235.59 492.059 235.238C492.551 234.918 493.156 234.676 493.875 234.512C494.602 234.34 495.434 234.254 496.371 234.254H498.188V233.504C498.188 233.207 498.141 232.941 498.047 232.707C497.953 232.465 497.812 232.258 497.625 232.086C497.43 231.906 497.184 231.77 496.887 231.676C496.598 231.574 496.258 231.523 495.867 231.523C495.523 231.523 495.227 231.566 494.977 231.652C494.727 231.73 494.523 231.844 494.367 231.992C494.227 232.125 494.121 232.285 494.051 232.473C493.988 232.66 493.957 232.867 493.957 233.094H490.699C490.699 232.555 490.816 232.043 491.051 231.559C491.293 231.074 491.645 230.648 492.105 230.281C492.559 229.914 493.113 229.625 493.77 229.414C494.434 229.195 495.191 229.086 496.043 229.086C496.809 229.086 497.52 229.18 498.176 229.367C498.84 229.555 499.414 229.832 499.898 230.199C500.383 230.566 500.762 231.031 501.035 231.594C501.309 232.148 501.445 232.793 501.445 233.527V238.965C501.445 239.645 501.488 240.207 501.574 240.652C501.66 241.098 501.785 241.48 501.949 241.801V242H498.645ZM495.539 239.715C495.867 239.715 496.172 239.676 496.453 239.598C496.734 239.52 496.988 239.418 497.215 239.293C497.441 239.168 497.637 239.027 497.801 238.871C497.965 238.707 498.094 238.543 498.188 238.379V236.199H496.523C496.016 236.199 495.582 236.25 495.223 236.352C494.863 236.445 494.57 236.578 494.344 236.75C494.117 236.93 493.949 237.145 493.84 237.395C493.73 237.637 493.676 237.902 493.676 238.191C493.676 238.418 493.715 238.629 493.793 238.824C493.879 239.012 494 239.172 494.156 239.305C494.312 239.43 494.504 239.531 494.73 239.609C494.965 239.68 495.234 239.715 495.539 239.715ZM505.816 224H512.906V239.352H516.539V242H505.816V239.352H509.613V226.66H505.816V224ZM422.578 256.938L424.195 263.348L426.035 256.938H430.125V274H427.102V268.949L427.242 260.969L425.004 268.375H423.375L421.371 261.285L421.512 268.949V274H418.488V256.938H422.578ZM440.988 274C440.91 273.844 440.844 273.664 440.789 273.461C440.734 273.258 440.688 273.043 440.648 272.816C440.469 273.012 440.262 273.195 440.027 273.367C439.793 273.539 439.535 273.688 439.254 273.812C438.965 273.945 438.648 274.047 438.305 274.117C437.961 274.195 437.59 274.234 437.191 274.234C436.543 274.234 435.945 274.141 435.398 273.953C434.859 273.766 434.395 273.504 434.004 273.168C433.613 272.832 433.309 272.434 433.09 271.973C432.871 271.504 432.762 270.996 432.762 270.449C432.762 269.746 432.898 269.125 433.172 268.586C433.445 268.039 433.855 267.59 434.402 267.238C434.895 266.918 435.5 266.676 436.219 266.512C436.945 266.34 437.777 266.254 438.715 266.254H440.531V265.504C440.531 265.207 440.484 264.941 440.391 264.707C440.297 264.465 440.156 264.258 439.969 264.086C439.773 263.906 439.527 263.77 439.23 263.676C438.941 263.574 438.602 263.523 438.211 263.523C437.867 263.523 437.57 263.566 437.32 263.652C437.07 263.73 436.867 263.844 436.711 263.992C436.57 264.125 436.465 264.285 436.395 264.473C436.332 264.66 436.301 264.867 436.301 265.094H433.043C433.043 264.555 433.16 264.043 433.395 263.559C433.637 263.074 433.988 262.648 434.449 262.281C434.902 261.914 435.457 261.625 436.113 261.414C436.777 261.195 437.535 261.086 438.387 261.086C439.152 261.086 439.863 261.18 440.52 261.367C441.184 261.555 441.758 261.832 442.242 262.199C442.727 262.566 443.105 263.031 443.379 263.594C443.652 264.148 443.789 264.793 443.789 265.527V270.965C443.789 271.645 443.832 272.207 443.918 272.652C444.004 273.098 444.129 273.48 444.293 273.801V274H440.988ZM437.883 271.715C438.211 271.715 438.516 271.676 438.797 271.598C439.078 271.52 439.332 271.418 439.559 271.293C439.785 271.168 439.98 271.027 440.145 270.871C440.309 270.707 440.438 270.543 440.531 270.379V268.199H438.867C438.359 268.199 437.926 268.25 437.566 268.352C437.207 268.445 436.914 268.578 436.688 268.75C436.461 268.93 436.293 269.145 436.184 269.395C436.074 269.637 436.02 269.902 436.02 270.191C436.02 270.418 436.059 270.629 436.137 270.824C436.223 271.012 436.344 271.172 436.5 271.305C436.656 271.43 436.848 271.531 437.074 271.609C437.309 271.68 437.578 271.715 437.883 271.715ZM456.586 261.086C457.078 261.086 457.531 261.121 457.945 261.191C458.367 261.254 458.707 261.324 458.965 261.402L458.484 264.648C458.055 264.547 457.613 264.473 457.16 264.426C456.715 264.371 456.289 264.344 455.883 264.344C455.461 264.344 455.078 264.383 454.734 264.461C454.398 264.531 454.098 264.641 453.832 264.789C453.512 264.961 453.238 265.18 453.012 265.445C452.785 265.711 452.598 266.023 452.449 266.383V274H449.191V261.32H452.227L452.355 263.113L452.379 263.395C452.895 262.676 453.512 262.113 454.23 261.707C454.949 261.293 455.734 261.086 456.586 261.086ZM466.664 268.762L465.188 270.133V274H461.93V256H465.188V266.289L466.172 265.164L469.676 261.32H473.59L468.809 266.605L474.258 274H470.262L466.664 268.762ZM482.461 274.234C481.484 274.234 480.598 274.074 479.801 273.754C479.004 273.434 478.32 272.996 477.75 272.441C477.18 271.895 476.738 271.25 476.426 270.508C476.121 269.758 475.969 268.957 475.969 268.105V267.637C475.969 266.668 476.121 265.785 476.426 264.988C476.73 264.184 477.156 263.492 477.703 262.914C478.25 262.336 478.898 261.887 479.648 261.566C480.398 261.246 481.215 261.086 482.098 261.086C483.012 261.086 483.824 261.238 484.535 261.543C485.254 261.84 485.863 262.262 486.363 262.809C486.855 263.355 487.23 264.016 487.488 264.789C487.746 265.555 487.875 266.402 487.875 267.332V268.715H479.273V268.75C479.383 269.258 479.523 269.668 479.695 269.98C479.867 270.285 480.098 270.562 480.387 270.812C480.684 271.07 481.023 271.27 481.406 271.41C481.789 271.551 482.207 271.621 482.66 271.621C483.301 271.621 483.922 271.5 484.523 271.258C485.125 271.016 485.613 270.652 485.988 270.168L487.617 271.926C487.203 272.512 486.547 273.043 485.648 273.52C484.75 273.996 483.688 274.234 482.461 274.234ZM482.074 263.723C481.707 263.723 481.371 263.789 481.066 263.922C480.762 264.047 480.496 264.23 480.27 264.473C480.035 264.715 479.84 265.004 479.684 265.34C479.527 265.676 479.41 266.051 479.332 266.465H484.676V266.207C484.676 265.863 484.613 265.539 484.488 265.234C484.363 264.93 484.191 264.664 483.973 264.438C483.754 264.219 483.484 264.047 483.164 263.922C482.852 263.789 482.488 263.723 482.074 263.723ZM496.699 258.215V261.32H501.434V263.723H496.699V269.172C496.699 269.633 496.75 270.02 496.852 270.332C496.961 270.637 497.113 270.879 497.309 271.059C497.504 271.246 497.738 271.379 498.012 271.457C498.293 271.535 498.605 271.574 498.949 271.574C499.199 271.574 499.453 271.562 499.711 271.539C499.977 271.516 500.23 271.484 500.473 271.445C500.707 271.414 500.926 271.379 501.129 271.34C501.34 271.301 501.52 271.262 501.668 271.223L501.984 273.461C501.758 273.594 501.492 273.711 501.188 273.812C500.883 273.906 500.559 273.984 500.215 274.047C499.871 274.109 499.512 274.156 499.137 274.188C498.77 274.227 498.406 274.246 498.047 274.246C497.352 274.246 496.719 274.156 496.148 273.977C495.586 273.789 495.105 273.5 494.707 273.109C494.301 272.727 493.988 272.238 493.77 271.645C493.551 271.043 493.441 270.324 493.441 269.488V263.723H490.547V261.32H493.441V258.215H496.699ZM506.004 261.32H512.906V271.352H516.34V274H506.004V271.352H509.613V263.98H506.004V261.32ZM509.379 258.074C509.379 257.824 509.422 257.594 509.508 257.383C509.602 257.164 509.73 256.977 509.895 256.82C510.059 256.672 510.254 256.555 510.48 256.469C510.715 256.383 510.973 256.34 511.254 256.34C511.832 256.34 512.289 256.504 512.625 256.832C512.969 257.152 513.141 257.566 513.141 258.074C513.141 258.582 512.969 259 512.625 259.328C512.289 259.648 511.832 259.809 511.254 259.809C510.973 259.809 510.715 259.766 510.48 259.68C510.254 259.594 510.059 259.473 509.895 259.316C509.73 259.168 509.602 258.988 509.508 258.777C509.422 258.559 509.379 258.324 509.379 258.074ZM519.551 274V261.32H522.504L522.703 263.078C522.867 262.844 523.047 262.629 523.242 262.434C523.438 262.238 523.645 262.062 523.863 261.906C524.238 261.641 524.648 261.438 525.094 261.297C525.539 261.156 526.012 261.086 526.512 261.086C527.152 261.086 527.738 261.18 528.27 261.367C528.801 261.555 529.262 261.852 529.652 262.258C530.035 262.672 530.332 263.203 530.543 263.852C530.762 264.492 530.871 265.273 530.871 266.195V274H527.613V266.242C527.613 265.742 527.555 265.332 527.438 265.012C527.328 264.684 527.168 264.426 526.957 264.238C526.746 264.051 526.492 263.922 526.195 263.852C525.898 263.773 525.562 263.734 525.188 263.734C524.875 263.734 524.586 263.77 524.32 263.84C524.062 263.91 523.832 264.016 523.629 264.156C523.465 264.258 523.316 264.379 523.184 264.52C523.051 264.66 522.93 264.816 522.82 264.988V274H519.551ZM533.637 267.566C533.637 266.605 533.754 265.727 533.988 264.93C534.23 264.133 534.574 263.449 535.02 262.879C535.465 262.309 536.004 261.867 536.637 261.555C537.27 261.242 537.984 261.086 538.781 261.086C539.211 261.086 539.602 261.129 539.953 261.215C540.312 261.293 540.637 261.414 540.926 261.578C541.145 261.695 541.348 261.836 541.535 262C541.723 262.156 541.895 262.332 542.051 262.527L542.18 261.32H545.145V273.59C545.145 274.449 544.996 275.215 544.699 275.887C544.41 276.559 544.004 277.125 543.48 277.586C542.949 278.047 542.312 278.395 541.57 278.629C540.836 278.871 540.023 278.992 539.133 278.992C538.75 278.992 538.34 278.953 537.902 278.875C537.465 278.797 537.031 278.676 536.602 278.512C536.172 278.348 535.766 278.137 535.383 277.879C535 277.629 534.672 277.328 534.398 276.977L535.863 274.996C536.074 275.238 536.301 275.449 536.543 275.629C536.785 275.816 537.039 275.969 537.305 276.086C537.562 276.203 537.828 276.289 538.102 276.344C538.383 276.406 538.672 276.438 538.969 276.438C539.445 276.438 539.867 276.371 540.234 276.238C540.609 276.105 540.922 275.91 541.172 275.652C541.398 275.418 541.57 275.129 541.688 274.785C541.812 274.441 541.875 274.055 541.875 273.625V272.898C541.719 273.07 541.555 273.227 541.383 273.367C541.211 273.508 541.027 273.633 540.832 273.742C540.543 273.898 540.223 274.02 539.871 274.105C539.527 274.191 539.156 274.234 538.758 274.234C537.969 274.234 537.258 274.074 536.625 273.754C536 273.426 535.465 272.977 535.02 272.406C534.574 271.836 534.23 271.16 533.988 270.379C533.754 269.59 533.637 268.734 533.637 267.812V267.566ZM536.906 267.812C536.906 268.344 536.957 268.84 537.059 269.301C537.168 269.754 537.332 270.148 537.551 270.484C537.77 270.828 538.047 271.098 538.383 271.293C538.719 271.488 539.117 271.586 539.578 271.586C539.859 271.586 540.113 271.559 540.34 271.504C540.574 271.449 540.785 271.371 540.973 271.27C541.168 271.16 541.34 271.027 541.488 270.871C541.637 270.715 541.766 270.539 541.875 270.344V264.977C541.758 264.758 541.617 264.566 541.453 264.402C541.289 264.238 541.102 264.105 540.891 264.004C540.711 263.918 540.512 263.852 540.293 263.805C540.082 263.758 539.852 263.734 539.602 263.734C539.141 263.734 538.742 263.836 538.406 264.039C538.07 264.234 537.793 264.504 537.574 264.848C537.348 265.199 537.18 265.609 537.07 266.078C536.961 266.539 536.906 267.035 536.906 267.566V267.812Z" fill="#27282D"/>
<path d="M131.148 230.438H126.027L125.02 234H121.551L127.141 216.938H130.129L135.613 234H132.145L131.148 230.438ZM126.836 227.637H130.375L128.629 221.355L126.836 227.637ZM136.949 227.566C136.949 226.605 137.059 225.727 137.277 224.93C137.504 224.133 137.832 223.449 138.262 222.879C138.691 222.309 139.211 221.867 139.82 221.555C140.438 221.242 141.141 221.086 141.93 221.086C142.594 221.086 143.176 221.207 143.676 221.449C144.184 221.684 144.633 222.02 145.023 222.457V216H148.293V234H145.352L145.188 232.676C144.789 233.168 144.32 233.551 143.781 233.824C143.242 234.098 142.617 234.234 141.906 234.234C141.133 234.234 140.438 234.074 139.82 233.754C139.211 233.426 138.695 232.977 138.273 232.406C137.844 231.836 137.516 231.16 137.289 230.379C137.062 229.59 136.949 228.734 136.949 227.812V227.566ZM140.207 227.812C140.207 228.344 140.25 228.84 140.336 229.301C140.43 229.754 140.578 230.148 140.781 230.484C140.984 230.828 141.246 231.098 141.566 231.293C141.887 231.488 142.277 231.586 142.738 231.586C143.301 231.586 143.766 231.465 144.133 231.223C144.508 230.98 144.805 230.648 145.023 230.227V225.094C144.805 224.664 144.512 224.332 144.145 224.098C143.777 223.855 143.316 223.734 142.762 223.734C142.301 223.734 141.906 223.836 141.578 224.039C141.258 224.234 140.996 224.504 140.793 224.848C140.59 225.199 140.441 225.609 140.348 226.078C140.254 226.539 140.207 227.035 140.207 227.566V227.812ZM155.734 234L150.895 221.32H154.293L157.082 230.262L157.258 231.152L157.434 230.262L160.211 221.32H163.609L158.793 234H155.734ZM172.27 234.234C171.293 234.234 170.406 234.074 169.609 233.754C168.812 233.434 168.129 232.996 167.559 232.441C166.988 231.895 166.547 231.25 166.234 230.508C165.93 229.758 165.777 228.957 165.777 228.105V227.637C165.777 226.668 165.93 225.785 166.234 224.988C166.539 224.184 166.965 223.492 167.512 222.914C168.059 222.336 168.707 221.887 169.457 221.566C170.207 221.246 171.023 221.086 171.906 221.086C172.82 221.086 173.633 221.238 174.344 221.543C175.062 221.84 175.672 222.262 176.172 222.809C176.664 223.355 177.039 224.016 177.297 224.789C177.555 225.555 177.684 226.402 177.684 227.332V228.715H169.082V228.75C169.191 229.258 169.332 229.668 169.504 229.98C169.676 230.285 169.906 230.562 170.195 230.812C170.492 231.07 170.832 231.27 171.215 231.41C171.598 231.551 172.016 231.621 172.469 231.621C173.109 231.621 173.73 231.5 174.332 231.258C174.934 231.016 175.422 230.652 175.797 230.168L177.426 231.926C177.012 232.512 176.355 233.043 175.457 233.52C174.559 233.996 173.496 234.234 172.27 234.234ZM171.883 223.723C171.516 223.723 171.18 223.789 170.875 223.922C170.57 224.047 170.305 224.23 170.078 224.473C169.844 224.715 169.648 225.004 169.492 225.34C169.336 225.676 169.219 226.051 169.141 226.465H174.484V226.207C174.484 225.863 174.422 225.539 174.297 225.234C174.172 224.93 174 224.664 173.781 224.438C173.562 224.219 173.293 224.047 172.973 223.922C172.66 223.789 172.297 223.723 171.883 223.723ZM189.637 221.086C190.129 221.086 190.582 221.121 190.996 221.191C191.418 221.254 191.758 221.324 192.016 221.402L191.535 224.648C191.105 224.547 190.664 224.473 190.211 224.426C189.766 224.371 189.34 224.344 188.934 224.344C188.512 224.344 188.129 224.383 187.785 224.461C187.449 224.531 187.148 224.641 186.883 224.789C186.562 224.961 186.289 225.18 186.062 225.445C185.836 225.711 185.648 226.023 185.5 226.383V234H182.242V221.32H185.277L185.406 223.113L185.43 223.395C185.945 222.676 186.562 222.113 187.281 221.707C188 221.293 188.785 221.086 189.637 221.086ZM200.922 218.215V221.32H205.656V223.723H200.922V229.172C200.922 229.633 200.973 230.02 201.074 230.332C201.184 230.637 201.336 230.879 201.531 231.059C201.727 231.246 201.961 231.379 202.234 231.457C202.516 231.535 202.828 231.574 203.172 231.574C203.422 231.574 203.676 231.562 203.934 231.539C204.199 231.516 204.453 231.484 204.695 231.445C204.93 231.414 205.148 231.379 205.352 231.34C205.562 231.301 205.742 231.262 205.891 231.223L206.207 233.461C205.98 233.594 205.715 233.711 205.41 233.812C205.105 233.906 204.781 233.984 204.438 234.047C204.094 234.109 203.734 234.156 203.359 234.188C202.992 234.227 202.629 234.246 202.27 234.246C201.574 234.246 200.941 234.156 200.371 233.977C199.809 233.789 199.328 233.5 198.93 233.109C198.523 232.727 198.211 232.238 197.992 231.645C197.773 231.043 197.664 230.324 197.664 229.488V223.723H194.77V221.32H197.664V218.215H200.922ZM210.227 221.32H217.129V231.352H220.562V234H210.227V231.352H213.836V223.98H210.227V221.32ZM213.602 218.074C213.602 217.824 213.645 217.594 213.73 217.383C213.824 217.164 213.953 216.977 214.117 216.82C214.281 216.672 214.477 216.555 214.703 216.469C214.938 216.383 215.195 216.34 215.477 216.34C216.055 216.34 216.512 216.504 216.848 216.832C217.191 217.152 217.363 217.566 217.363 218.074C217.363 218.582 217.191 219 216.848 219.328C216.512 219.648 216.055 219.809 215.477 219.809C215.195 219.809 214.938 219.766 214.703 219.68C214.477 219.594 214.281 219.473 214.117 219.316C213.953 219.168 213.824 218.988 213.73 218.777C213.645 218.559 213.602 218.324 213.602 218.074ZM231.953 230.52C231.953 230.324 231.906 230.152 231.812 230.004C231.727 229.855 231.57 229.715 231.344 229.582C231.109 229.457 230.801 229.34 230.418 229.23C230.035 229.121 229.551 229.012 228.965 228.902C228.223 228.754 227.543 228.57 226.926 228.352C226.316 228.125 225.793 227.852 225.355 227.531C224.918 227.219 224.574 226.855 224.324 226.441C224.082 226.027 223.961 225.551 223.961 225.012C223.961 224.488 224.086 223.988 224.336 223.512C224.586 223.035 224.945 222.617 225.414 222.258C225.883 221.898 226.453 221.613 227.125 221.402C227.797 221.191 228.555 221.086 229.398 221.086C230.281 221.086 231.074 221.191 231.777 221.402C232.48 221.605 233.078 221.887 233.57 222.246C234.055 222.613 234.426 223.047 234.684 223.547C234.941 224.047 235.07 224.59 235.07 225.176H231.812C231.812 224.965 231.777 224.77 231.707 224.59C231.637 224.402 231.531 224.234 231.391 224.086C231.195 223.891 230.93 223.734 230.594 223.617C230.266 223.5 229.867 223.441 229.398 223.441C229 223.441 228.652 223.48 228.355 223.559C228.059 223.637 227.816 223.746 227.629 223.887C227.457 224.012 227.324 224.16 227.23 224.332C227.145 224.496 227.102 224.672 227.102 224.859C227.102 225.047 227.141 225.223 227.219 225.387C227.297 225.543 227.438 225.684 227.641 225.809C227.836 225.941 228.105 226.062 228.449 226.172C228.793 226.273 229.23 226.363 229.762 226.441C230.527 226.566 231.238 226.727 231.895 226.922C232.551 227.117 233.117 227.367 233.594 227.672C234.07 227.984 234.441 228.363 234.707 228.809C234.98 229.246 235.117 229.77 235.117 230.379C235.117 230.941 234.98 231.461 234.707 231.938C234.441 232.406 234.062 232.812 233.57 233.156C233.07 233.5 232.469 233.77 231.766 233.965C231.062 234.152 230.277 234.246 229.41 234.246C228.457 234.246 227.613 234.121 226.879 233.871C226.152 233.621 225.543 233.293 225.051 232.887C224.559 232.488 224.184 232.035 223.926 231.527C223.676 231.012 223.551 230.496 223.551 229.98H226.656C226.68 230.324 226.773 230.621 226.938 230.871C227.102 231.113 227.312 231.309 227.57 231.457C227.828 231.613 228.121 231.727 228.449 231.797C228.785 231.867 229.129 231.902 229.48 231.902C229.902 231.902 230.27 231.867 230.582 231.797C230.902 231.719 231.164 231.617 231.367 231.492C231.562 231.367 231.707 231.223 231.801 231.059C231.902 230.895 231.953 230.715 231.953 230.52ZM239.055 221.32H245.957V231.352H249.391V234H239.055V231.352H242.664V223.98H239.055V221.32ZM242.43 218.074C242.43 217.824 242.473 217.594 242.559 217.383C242.652 217.164 242.781 216.977 242.945 216.82C243.109 216.672 243.305 216.555 243.531 216.469C243.766 216.383 244.023 216.34 244.305 216.34C244.883 216.34 245.34 216.504 245.676 216.832C246.02 217.152 246.191 217.566 246.191 218.074C246.191 218.582 246.02 219 245.676 219.328C245.34 219.648 244.883 219.809 244.305 219.809C244.023 219.809 243.766 219.766 243.531 219.68C243.305 219.594 243.109 219.473 242.945 219.316C242.781 219.168 242.652 218.988 242.559 218.777C242.473 218.559 242.43 218.324 242.43 218.074ZM252.602 234V221.32H255.555L255.754 223.078C255.918 222.844 256.098 222.629 256.293 222.434C256.488 222.238 256.695 222.062 256.914 221.906C257.289 221.641 257.699 221.438 258.145 221.297C258.59 221.156 259.062 221.086 259.562 221.086C260.203 221.086 260.789 221.18 261.32 221.367C261.852 221.555 262.312 221.852 262.703 222.258C263.086 222.672 263.383 223.203 263.594 223.852C263.812 224.492 263.922 225.273 263.922 226.195V234H260.664V226.242C260.664 225.742 260.605 225.332 260.488 225.012C260.379 224.684 260.219 224.426 260.008 224.238C259.797 224.051 259.543 223.922 259.246 223.852C258.949 223.773 258.613 223.734 258.238 223.734C257.926 223.734 257.637 223.77 257.371 223.84C257.113 223.91 256.883 224.016 256.68 224.156C256.516 224.258 256.367 224.379 256.234 224.52C256.102 224.66 255.98 224.816 255.871 224.988V234H252.602ZM266.688 227.566C266.688 226.605 266.805 225.727 267.039 224.93C267.281 224.133 267.625 223.449 268.07 222.879C268.516 222.309 269.055 221.867 269.688 221.555C270.32 221.242 271.035 221.086 271.832 221.086C272.262 221.086 272.652 221.129 273.004 221.215C273.363 221.293 273.688 221.414 273.977 221.578C274.195 221.695 274.398 221.836 274.586 222C274.773 222.156 274.945 222.332 275.102 222.527L275.23 221.32H278.195V233.59C278.195 234.449 278.047 235.215 277.75 235.887C277.461 236.559 277.055 237.125 276.531 237.586C276 238.047 275.363 238.395 274.621 238.629C273.887 238.871 273.074 238.992 272.184 238.992C271.801 238.992 271.391 238.953 270.953 238.875C270.516 238.797 270.082 238.676 269.652 238.512C269.223 238.348 268.816 238.137 268.434 237.879C268.051 237.629 267.723 237.328 267.449 236.977L268.914 234.996C269.125 235.238 269.352 235.449 269.594 235.629C269.836 235.816 270.09 235.969 270.355 236.086C270.613 236.203 270.879 236.289 271.152 236.344C271.434 236.406 271.723 236.438 272.02 236.438C272.496 236.438 272.918 236.371 273.285 236.238C273.66 236.105 273.973 235.91 274.223 235.652C274.449 235.418 274.621 235.129 274.738 234.785C274.863 234.441 274.926 234.055 274.926 233.625V232.898C274.77 233.07 274.605 233.227 274.434 233.367C274.262 233.508 274.078 233.633 273.883 233.742C273.594 233.898 273.273 234.02 272.922 234.105C272.578 234.191 272.207 234.234 271.809 234.234C271.02 234.234 270.309 234.074 269.676 233.754C269.051 233.426 268.516 232.977 268.07 232.406C267.625 231.836 267.281 231.16 267.039 230.379C266.805 229.59 266.688 228.734 266.688 227.812V227.566ZM269.957 227.812C269.957 228.344 270.008 228.84 270.109 229.301C270.219 229.754 270.383 230.148 270.602 230.484C270.82 230.828 271.098 231.098 271.434 231.293C271.77 231.488 272.168 231.586 272.629 231.586C272.91 231.586 273.164 231.559 273.391 231.504C273.625 231.449 273.836 231.371 274.023 231.27C274.219 231.16 274.391 231.027 274.539 230.871C274.688 230.715 274.816 230.539 274.926 230.344V224.977C274.809 224.758 274.668 224.566 274.504 224.402C274.34 224.238 274.152 224.105 273.941 224.004C273.762 223.918 273.562 223.852 273.344 223.805C273.133 223.758 272.902 223.734 272.652 223.734C272.191 223.734 271.793 223.836 271.457 224.039C271.121 224.234 270.844 224.504 270.625 224.848C270.398 225.199 270.23 225.609 270.121 226.078C270.012 226.539 269.957 227.035 269.957 227.566V227.812Z" fill="#27282D"/>
<path d="M171.043 134L168.699 116.938H171.711L172.848 126.477L172.93 127.145L173.035 126.441L174.383 116.938H176.738L178.168 126.512L178.273 127.215L178.355 126.5L179.516 116.938H182.539L180.172 134H177.195L175.707 124.789L175.578 123.922L175.449 124.789L174.02 134H171.043ZM190.613 134.234C189.637 134.234 188.75 134.074 187.953 133.754C187.156 133.434 186.473 132.996 185.902 132.441C185.332 131.895 184.891 131.25 184.578 130.508C184.273 129.758 184.121 128.957 184.121 128.105V127.637C184.121 126.668 184.273 125.785 184.578 124.988C184.883 124.184 185.309 123.492 185.855 122.914C186.402 122.336 187.051 121.887 187.801 121.566C188.551 121.246 189.367 121.086 190.25 121.086C191.164 121.086 191.977 121.238 192.688 121.543C193.406 121.84 194.016 122.262 194.516 122.809C195.008 123.355 195.383 124.016 195.641 124.789C195.898 125.555 196.027 126.402 196.027 127.332V128.715H187.426V128.75C187.535 129.258 187.676 129.668 187.848 129.98C188.02 130.285 188.25 130.562 188.539 130.812C188.836 131.07 189.176 131.27 189.559 131.41C189.941 131.551 190.359 131.621 190.812 131.621C191.453 131.621 192.074 131.5 192.676 131.258C193.277 131.016 193.766 130.652 194.141 130.168L195.77 131.926C195.355 132.512 194.699 133.043 193.801 133.52C192.902 133.996 191.84 134.234 190.613 134.234ZM190.227 123.723C189.859 123.723 189.523 123.789 189.219 123.922C188.914 124.047 188.648 124.23 188.422 124.473C188.188 124.715 187.992 125.004 187.836 125.34C187.68 125.676 187.562 126.051 187.484 126.465H192.828V126.207C192.828 125.863 192.766 125.539 192.641 125.234C192.516 124.93 192.344 124.664 192.125 124.438C191.906 124.219 191.637 124.047 191.316 123.922C191.004 123.789 190.641 123.723 190.227 123.723ZM210.301 127.789C210.301 128.398 210.258 128.977 210.172 129.523C210.086 130.062 209.961 130.562 209.797 131.023C209.617 131.531 209.379 131.992 209.082 132.406C208.793 132.82 208.449 133.164 208.051 133.438C207.691 133.695 207.285 133.891 206.832 134.023C206.387 134.164 205.895 134.234 205.355 134.234C204.863 134.234 204.414 134.172 204.008 134.047C203.609 133.93 203.25 133.754 202.93 133.52C202.758 133.402 202.598 133.273 202.449 133.133C202.301 132.984 202.16 132.824 202.027 132.652L201.875 134H198.945V116H202.203V122.469C202.359 122.289 202.527 122.125 202.707 121.977C202.887 121.82 203.078 121.688 203.281 121.578C203.57 121.414 203.883 121.293 204.219 121.215C204.562 121.129 204.934 121.086 205.332 121.086C205.879 121.086 206.379 121.156 206.832 121.297C207.293 121.438 207.703 121.641 208.062 121.906C208.352 122.109 208.613 122.355 208.848 122.645C209.082 122.926 209.289 123.234 209.469 123.57C209.75 124.109 209.957 124.715 210.09 125.387C210.23 126.059 210.301 126.777 210.301 127.543V127.789ZM207.043 127.543C207.043 127.207 207.027 126.883 206.996 126.57C206.965 126.258 206.914 125.965 206.844 125.691C206.758 125.371 206.645 125.086 206.504 124.836C206.371 124.578 206.168 124.344 205.895 124.133C205.715 124 205.512 123.902 205.285 123.84C205.059 123.77 204.801 123.734 204.512 123.734C204.121 123.734 203.777 123.789 203.48 123.898C203.184 124.008 202.93 124.168 202.719 124.379C202.617 124.48 202.523 124.598 202.438 124.73C202.352 124.855 202.273 124.992 202.203 125.141V130.191C202.297 130.387 202.402 130.566 202.52 130.73C202.645 130.887 202.789 131.023 202.953 131.141C203.148 131.289 203.375 131.402 203.633 131.48C203.898 131.559 204.199 131.598 204.535 131.598C204.824 131.598 205.086 131.562 205.32 131.492C205.555 131.422 205.758 131.324 205.93 131.199C206.172 131.027 206.367 130.805 206.516 130.531C206.672 130.25 206.789 129.934 206.867 129.582C206.93 129.324 206.973 129.043 206.996 128.738C207.027 128.434 207.043 128.117 207.043 127.789V127.543ZM227.516 134V116.938H231.934C232.723 116.938 233.461 117.035 234.148 117.23C234.836 117.418 235.461 117.688 236.023 118.039C236.516 118.328 236.953 118.684 237.336 119.105C237.727 119.52 238.066 119.973 238.355 120.465C238.691 121.066 238.949 121.73 239.129 122.457C239.316 123.184 239.41 123.957 239.41 124.777V126.184C239.41 126.973 239.324 127.719 239.152 128.422C238.98 129.125 238.738 129.77 238.426 130.355C238.129 130.879 237.781 131.363 237.383 131.809C236.984 132.246 236.547 132.613 236.07 132.91C235.516 133.262 234.902 133.531 234.23 133.719C233.566 133.906 232.855 134 232.098 134H227.516ZM230.832 119.609V131.352H232.098C232.504 131.352 232.883 131.301 233.234 131.199C233.586 131.098 233.906 130.949 234.195 130.754C234.492 130.551 234.758 130.293 234.992 129.98C235.234 129.66 235.441 129.289 235.613 128.867C235.754 128.5 235.859 128.094 235.93 127.648C236.008 127.195 236.047 126.707 236.047 126.184V124.754C236.047 124.262 236.008 123.797 235.93 123.359C235.859 122.914 235.754 122.508 235.613 122.141C235.441 121.703 235.215 121.312 234.934 120.969C234.66 120.625 234.34 120.344 233.973 120.125C233.691 119.961 233.379 119.836 233.035 119.75C232.699 119.656 232.332 119.609 231.934 119.609H230.832ZM248.27 134.234C247.293 134.234 246.406 134.074 245.609 133.754C244.812 133.434 244.129 132.996 243.559 132.441C242.988 131.895 242.547 131.25 242.234 130.508C241.93 129.758 241.777 128.957 241.777 128.105V127.637C241.777 126.668 241.93 125.785 242.234 124.988C242.539 124.184 242.965 123.492 243.512 122.914C244.059 122.336 244.707 121.887 245.457 121.566C246.207 121.246 247.023 121.086 247.906 121.086C248.82 121.086 249.633 121.238 250.344 121.543C251.062 121.84 251.672 122.262 252.172 122.809C252.664 123.355 253.039 124.016 253.297 124.789C253.555 125.555 253.684 126.402 253.684 127.332V128.715H245.082V128.75C245.191 129.258 245.332 129.668 245.504 129.98C245.676 130.285 245.906 130.562 246.195 130.812C246.492 131.07 246.832 131.27 247.215 131.41C247.598 131.551 248.016 131.621 248.469 131.621C249.109 131.621 249.73 131.5 250.332 131.258C250.934 131.016 251.422 130.652 251.797 130.168L253.426 131.926C253.012 132.512 252.355 133.043 251.457 133.52C250.559 133.996 249.496 134.234 248.27 134.234ZM247.883 123.723C247.516 123.723 247.18 123.789 246.875 123.922C246.57 124.047 246.305 124.23 246.078 124.473C245.844 124.715 245.648 125.004 245.492 125.34C245.336 125.676 245.219 126.051 245.141 126.465H250.484V126.207C250.484 125.863 250.422 125.539 250.297 125.234C250.172 124.93 250 124.664 249.781 124.438C249.562 124.219 249.293 124.047 248.973 123.922C248.66 123.789 248.297 123.723 247.883 123.723ZM260.562 134L255.723 121.32H259.121L261.91 130.262L262.086 131.152L262.262 130.262L265.039 121.32H268.438L263.621 134H260.562ZM277.098 134.234C276.121 134.234 275.234 134.074 274.438 133.754C273.641 133.434 272.957 132.996 272.387 132.441C271.816 131.895 271.375 131.25 271.062 130.508C270.758 129.758 270.605 128.957 270.605 128.105V127.637C270.605 126.668 270.758 125.785 271.062 124.988C271.367 124.184 271.793 123.492 272.34 122.914C272.887 122.336 273.535 121.887 274.285 121.566C275.035 121.246 275.852 121.086 276.734 121.086C277.648 121.086 278.461 121.238 279.172 121.543C279.891 121.84 280.5 122.262 281 122.809C281.492 123.355 281.867 124.016 282.125 124.789C282.383 125.555 282.512 126.402 282.512 127.332V128.715H273.91V128.75C274.02 129.258 274.16 129.668 274.332 129.98C274.504 130.285 274.734 130.562 275.023 130.812C275.32 131.07 275.66 131.27 276.043 131.41C276.426 131.551 276.844 131.621 277.297 131.621C277.938 131.621 278.559 131.5 279.16 131.258C279.762 131.016 280.25 130.652 280.625 130.168L282.254 131.926C281.84 132.512 281.184 133.043 280.285 133.52C279.387 133.996 278.324 134.234 277.098 134.234ZM276.711 123.723C276.344 123.723 276.008 123.789 275.703 123.922C275.398 124.047 275.133 124.23 274.906 124.473C274.672 124.715 274.477 125.004 274.32 125.34C274.164 125.676 274.047 126.051 273.969 126.465H279.312V126.207C279.312 125.863 279.25 125.539 279.125 125.234C279 124.93 278.828 124.664 278.609 124.438C278.391 124.219 278.121 124.047 277.801 123.922C277.488 123.789 277.125 123.723 276.711 123.723ZM286.039 116H293.129V131.352H296.762V134H286.039V131.352H289.836V118.66H286.039V116ZM299.328 127.543C299.328 126.621 299.461 125.77 299.727 124.988C299.992 124.199 300.383 123.516 300.898 122.938C301.406 122.359 302.027 121.906 302.762 121.578C303.504 121.25 304.352 121.086 305.305 121.086C306.258 121.086 307.105 121.25 307.848 121.578C308.59 121.906 309.219 122.359 309.734 122.938C310.242 123.516 310.629 124.199 310.895 124.988C311.16 125.77 311.293 126.621 311.293 127.543V127.789C311.293 128.719 311.16 129.578 310.895 130.367C310.629 131.148 310.242 131.828 309.734 132.406C309.227 132.984 308.602 133.438 307.859 133.766C307.117 134.086 306.273 134.246 305.328 134.246C304.375 134.246 303.523 134.086 302.773 133.766C302.031 133.438 301.406 132.984 300.898 132.406C300.383 131.828 299.992 131.148 299.727 130.367C299.461 129.578 299.328 128.719 299.328 127.789V127.543ZM302.586 127.789C302.586 128.32 302.637 128.82 302.738 129.289C302.84 129.75 303 130.152 303.219 130.496C303.438 130.848 303.719 131.125 304.062 131.328C304.414 131.531 304.836 131.633 305.328 131.633C305.805 131.633 306.215 131.531 306.559 131.328C306.902 131.125 307.184 130.848 307.402 130.496C307.613 130.152 307.77 129.75 307.871 129.289C307.973 128.82 308.023 128.32 308.023 127.789V127.543C308.023 127.027 307.973 126.539 307.871 126.078C307.77 125.617 307.613 125.211 307.402 124.859C307.184 124.508 306.902 124.23 306.559 124.027C306.215 123.824 305.797 123.723 305.305 123.723C304.82 123.723 304.406 123.824 304.062 124.027C303.719 124.23 303.438 124.508 303.219 124.859C303 125.211 302.84 125.617 302.738 126.078C302.637 126.539 302.586 127.027 302.586 127.543V127.789ZM314.234 138.875V121.32H317.246L317.363 122.562C317.535 122.352 317.723 122.164 317.926 122C318.129 121.828 318.348 121.68 318.582 121.555C318.863 121.406 319.172 121.293 319.508 121.215C319.852 121.129 320.219 121.086 320.609 121.086C321.414 121.086 322.125 121.242 322.742 121.555C323.359 121.859 323.879 122.293 324.301 122.855C324.723 123.426 325.039 124.109 325.25 124.906C325.469 125.695 325.578 126.57 325.578 127.531V127.777C325.578 128.699 325.469 129.555 325.25 130.344C325.039 131.133 324.727 131.812 324.312 132.383C323.891 132.961 323.371 133.414 322.754 133.742C322.137 134.07 321.43 134.234 320.633 134.234C320.211 134.234 319.82 134.188 319.461 134.094C319.109 134.008 318.781 133.879 318.477 133.707C318.297 133.598 318.125 133.477 317.961 133.344C317.797 133.211 317.641 133.062 317.492 132.898V138.875H314.234ZM322.32 127.531C322.32 127 322.27 126.504 322.168 126.043C322.074 125.574 321.926 125.168 321.723 124.824C321.512 124.488 321.242 124.223 320.914 124.027C320.594 123.832 320.203 123.734 319.742 123.734C319.477 123.734 319.234 123.762 319.016 123.816C318.797 123.863 318.598 123.934 318.418 124.027C318.215 124.137 318.035 124.273 317.879 124.438C317.73 124.602 317.602 124.793 317.492 125.012V130.309C317.594 130.512 317.715 130.695 317.855 130.859C318.004 131.023 318.172 131.164 318.359 131.281C318.539 131.391 318.746 131.477 318.98 131.539C319.215 131.594 319.477 131.621 319.766 131.621C320.227 131.621 320.617 131.52 320.938 131.316C321.266 131.113 321.531 130.836 321.734 130.484C321.938 130.133 322.086 129.727 322.18 129.266C322.273 128.797 322.32 128.301 322.32 127.777V127.531ZM330.629 121.32L330.723 122.855C330.965 122.309 331.297 121.879 331.719 121.566C332.148 121.246 332.668 121.086 333.277 121.086C333.574 121.086 333.84 121.121 334.074 121.191C334.309 121.262 334.512 121.371 334.684 121.52C334.816 121.629 334.93 121.762 335.023 121.918C335.125 122.066 335.211 122.238 335.281 122.434C335.391 122.246 335.512 122.078 335.645 121.93C335.785 121.773 335.938 121.641 336.102 121.531C336.305 121.391 336.535 121.281 336.793 121.203C337.051 121.125 337.332 121.086 337.637 121.086C338.02 121.086 338.375 121.156 338.703 121.297C339.039 121.438 339.332 121.66 339.582 121.965C339.824 122.277 340.012 122.68 340.145 123.172C340.285 123.656 340.355 124.25 340.355 124.953V134H337.391V124.941C337.391 124.699 337.363 124.5 337.309 124.344C337.262 124.188 337.195 124.062 337.109 123.969C337.023 123.883 336.922 123.824 336.805 123.793C336.695 123.754 336.582 123.734 336.465 123.734C336.34 123.734 336.227 123.75 336.125 123.781C336.031 123.812 335.941 123.855 335.855 123.91C335.785 123.965 335.723 124.027 335.668 124.098C335.613 124.16 335.566 124.234 335.527 124.32C335.527 124.336 335.527 124.371 335.527 124.426C335.527 124.48 335.527 124.555 335.527 124.648V134H332.656V124.93C332.656 124.688 332.633 124.488 332.586 124.332C332.539 124.176 332.477 124.055 332.398 123.969C332.312 123.883 332.215 123.824 332.105 123.793C331.996 123.754 331.879 123.734 331.754 123.734C331.613 123.734 331.488 123.758 331.379 123.805C331.27 123.852 331.172 123.918 331.086 124.004C331.023 124.066 330.969 124.141 330.922 124.227C330.875 124.312 330.832 124.406 330.793 124.508V134H327.828V121.32H330.629ZM349.168 134.234C348.191 134.234 347.305 134.074 346.508 133.754C345.711 133.434 345.027 132.996 344.457 132.441C343.887 131.895 343.445 131.25 343.133 130.508C342.828 129.758 342.676 128.957 342.676 128.105V127.637C342.676 126.668 342.828 125.785 343.133 124.988C343.438 124.184 343.863 123.492 344.41 122.914C344.957 122.336 345.605 121.887 346.355 121.566C347.105 121.246 347.922 121.086 348.805 121.086C349.719 121.086 350.531 121.238 351.242 121.543C351.961 121.84 352.57 122.262 353.07 122.809C353.562 123.355 353.938 124.016 354.195 124.789C354.453 125.555 354.582 126.402 354.582 127.332V128.715H345.98V128.75C346.09 129.258 346.23 129.668 346.402 129.98C346.574 130.285 346.805 130.562 347.094 130.812C347.391 131.07 347.73 131.27 348.113 131.41C348.496 131.551 348.914 131.621 349.367 131.621C350.008 131.621 350.629 131.5 351.23 131.258C351.832 131.016 352.32 130.652 352.695 130.168L354.324 131.926C353.91 132.512 353.254 133.043 352.355 133.52C351.457 133.996 350.395 134.234 349.168 134.234ZM348.781 123.723C348.414 123.723 348.078 123.789 347.773 123.922C347.469 124.047 347.203 124.23 346.977 124.473C346.742 124.715 346.547 125.004 346.391 125.34C346.234 125.676 346.117 126.051 346.039 126.465H351.383V126.207C351.383 125.863 351.32 125.539 351.195 125.234C351.07 124.93 350.898 124.664 350.68 124.438C350.461 124.219 350.191 124.047 349.871 123.922C349.559 123.789 349.195 123.723 348.781 123.723ZM357.43 134V121.32H360.383L360.582 123.078C360.746 122.844 360.926 122.629 361.121 122.434C361.316 122.238 361.523 122.062 361.742 121.906C362.117 121.641 362.527 121.438 362.973 121.297C363.418 121.156 363.891 121.086 364.391 121.086C365.031 121.086 365.617 121.18 366.148 121.367C366.68 121.555 367.141 121.852 367.531 122.258C367.914 122.672 368.211 123.203 368.422 123.852C368.641 124.492 368.75 125.273 368.75 126.195V134H365.492V126.242C365.492 125.742 365.434 125.332 365.316 125.012C365.207 124.684 365.047 124.426 364.836 124.238C364.625 124.051 364.371 123.922 364.074 123.852C363.777 123.773 363.441 123.734 363.066 123.734C362.754 123.734 362.465 123.77 362.199 123.84C361.941 123.91 361.711 124.016 361.508 124.156C361.344 124.258 361.195 124.379 361.062 124.52C360.93 124.66 360.809 124.816 360.699 124.988V134H357.43ZM377.82 118.215V121.32H382.555V123.723H377.82V129.172C377.82 129.633 377.871 130.02 377.973 130.332C378.082 130.637 378.234 130.879 378.43 131.059C378.625 131.246 378.859 131.379 379.133 131.457C379.414 131.535 379.727 131.574 380.07 131.574C380.32 131.574 380.574 131.562 380.832 131.539C381.098 131.516 381.352 131.484 381.594 131.445C381.828 131.414 382.047 131.379 382.25 131.34C382.461 131.301 382.641 131.262 382.789 131.223L383.105 133.461C382.879 133.594 382.613 133.711 382.309 133.812C382.004 133.906 381.68 133.984 381.336 134.047C380.992 134.109 380.633 134.156 380.258 134.188C379.891 134.227 379.527 134.246 379.168 134.246C378.473 134.246 377.84 134.156 377.27 133.977C376.707 133.789 376.227 133.5 375.828 133.109C375.422 132.727 375.109 132.238 374.891 131.645C374.672 131.043 374.562 130.324 374.562 129.488V123.723H371.668V121.32H374.562V118.215H377.82Z" fill="#27282D"/>
<path d="M482.465 134V116.938H486.883C487.672 116.938 488.41 117.035 489.098 117.23C489.785 117.418 490.41 117.688 490.973 118.039C491.465 118.328 491.902 118.684 492.285 119.105C492.676 119.52 493.016 119.973 493.305 120.465C493.641 121.066 493.898 121.73 494.078 122.457C494.266 123.184 494.359 123.957 494.359 124.777V126.184C494.359 126.973 494.273 127.719 494.102 128.422C493.93 129.125 493.688 129.77 493.375 130.355C493.078 130.879 492.73 131.363 492.332 131.809C491.934 132.246 491.496 132.613 491.02 132.91C490.465 133.262 489.852 133.531 489.18 133.719C488.516 133.906 487.805 134 487.047 134H482.465ZM485.781 119.609V131.352H487.047C487.453 131.352 487.832 131.301 488.184 131.199C488.535 131.098 488.855 130.949 489.145 130.754C489.441 130.551 489.707 130.293 489.941 129.98C490.184 129.66 490.391 129.289 490.563 128.867C490.703 128.5 490.809 128.094 490.879 127.648C490.957 127.195 490.996 126.707 490.996 126.184V124.754C490.996 124.262 490.957 123.797 490.879 123.359C490.809 122.914 490.703 122.508 490.563 122.141C490.391 121.703 490.164 121.313 489.883 120.969C489.609 120.625 489.289 120.344 488.922 120.125C488.641 119.961 488.328 119.836 487.984 119.75C487.648 119.656 487.281 119.609 486.883 119.609H485.781ZM503.219 134.234C502.242 134.234 501.355 134.074 500.559 133.754C499.762 133.434 499.078 132.996 498.508 132.441C497.938 131.895 497.496 131.25 497.184 130.508C496.879 129.758 496.727 128.957 496.727 128.105V127.637C496.727 126.668 496.879 125.785 497.184 124.988C497.488 124.184 497.914 123.492 498.461 122.914C499.008 122.336 499.656 121.887 500.406 121.566C501.156 121.246 501.973 121.086 502.855 121.086C503.77 121.086 504.582 121.238 505.293 121.543C506.012 121.84 506.621 122.262 507.121 122.809C507.613 123.355 507.988 124.016 508.246 124.789C508.504 125.555 508.633 126.402 508.633 127.332V128.715H500.031V128.75C500.141 129.258 500.281 129.668 500.453 129.98C500.625 130.285 500.855 130.563 501.145 130.813C501.441 131.07 501.781 131.27 502.164 131.41C502.547 131.551 502.965 131.621 503.418 131.621C504.059 131.621 504.68 131.5 505.281 131.258C505.883 131.016 506.371 130.652 506.746 130.168L508.375 131.926C507.961 132.512 507.305 133.043 506.406 133.52C505.508 133.996 504.445 134.234 503.219 134.234ZM502.832 123.723C502.465 123.723 502.129 123.789 501.824 123.922C501.52 124.047 501.254 124.23 501.027 124.473C500.793 124.715 500.598 125.004 500.441 125.34C500.285 125.676 500.168 126.051 500.09 126.465H505.434V126.207C505.434 125.863 505.371 125.539 505.246 125.234C505.121 124.93 504.949 124.664 504.73 124.438C504.512 124.219 504.242 124.047 503.922 123.922C503.609 123.789 503.246 123.723 502.832 123.723ZM519.66 130.52C519.66 130.324 519.613 130.152 519.52 130.004C519.434 129.855 519.277 129.715 519.051 129.582C518.816 129.457 518.508 129.34 518.125 129.23C517.742 129.121 517.258 129.012 516.672 128.902C515.93 128.754 515.25 128.57 514.633 128.352C514.023 128.125 513.5 127.852 513.063 127.531C512.625 127.219 512.281 126.855 512.031 126.441C511.789 126.027 511.668 125.551 511.668 125.012C511.668 124.488 511.793 123.988 512.043 123.512C512.293 123.035 512.652 122.617 513.121 122.258C513.59 121.898 514.16 121.613 514.832 121.402C515.504 121.191 516.262 121.086 517.105 121.086C517.988 121.086 518.781 121.191 519.484 121.402C520.188 121.605 520.785 121.887 521.277 122.246C521.762 122.613 522.133 123.047 522.391 123.547C522.648 124.047 522.777 124.59 522.777 125.176H519.52C519.52 124.965 519.484 124.77 519.414 124.59C519.344 124.402 519.238 124.234 519.098 124.086C518.902 123.891 518.637 123.734 518.301 123.617C517.973 123.5 517.574 123.441 517.105 123.441C516.707 123.441 516.359 123.48 516.063 123.559C515.766 123.637 515.523 123.746 515.336 123.887C515.164 124.012 515.031 124.16 514.938 124.332C514.852 124.496 514.809 124.672 514.809 124.859C514.809 125.047 514.848 125.223 514.926 125.387C515.004 125.543 515.145 125.684 515.348 125.809C515.543 125.941 515.813 126.063 516.156 126.172C516.5 126.273 516.938 126.363 517.469 126.441C518.234 126.566 518.945 126.727 519.602 126.922C520.258 127.117 520.824 127.367 521.301 127.672C521.777 127.984 522.148 128.363 522.414 128.809C522.688 129.246 522.824 129.77 522.824 130.379C522.824 130.941 522.688 131.461 522.414 131.938C522.148 132.406 521.77 132.813 521.277 133.156C520.777 133.5 520.176 133.77 519.473 133.965C518.77 134.152 517.984 134.246 517.117 134.246C516.164 134.246 515.32 134.121 514.586 133.871C513.859 133.621 513.25 133.293 512.758 132.887C512.266 132.488 511.891 132.035 511.633 131.527C511.383 131.012 511.258 130.496 511.258 129.98H514.363C514.387 130.324 514.48 130.621 514.645 130.871C514.809 131.113 515.02 131.309 515.277 131.457C515.535 131.613 515.828 131.727 516.156 131.797C516.492 131.867 516.836 131.902 517.188 131.902C517.609 131.902 517.977 131.867 518.289 131.797C518.609 131.719 518.871 131.617 519.074 131.492C519.27 131.367 519.414 131.223 519.508 131.059C519.609 130.895 519.66 130.715 519.66 130.52ZM526.762 121.32H533.664V131.352H537.098V134H526.762V131.352H530.371V123.98H526.762V121.32ZM530.137 118.074C530.137 117.824 530.18 117.594 530.266 117.383C530.359 117.164 530.488 116.977 530.652 116.82C530.816 116.672 531.012 116.555 531.238 116.469C531.473 116.383 531.73 116.34 532.012 116.34C532.59 116.34 533.047 116.504 533.383 116.832C533.727 117.152 533.898 117.566 533.898 118.074C533.898 118.582 533.727 119 533.383 119.328C533.047 119.648 532.59 119.809 532.012 119.809C531.73 119.809 531.473 119.766 531.238 119.68C531.012 119.594 530.816 119.473 530.652 119.316C530.488 119.168 530.359 118.988 530.266 118.777C530.18 118.559 530.137 118.324 530.137 118.074ZM539.98 127.566C539.98 126.605 540.098 125.727 540.332 124.93C540.574 124.133 540.918 123.449 541.363 122.879C541.809 122.309 542.348 121.867 542.98 121.555C543.613 121.242 544.328 121.086 545.125 121.086C545.555 121.086 545.945 121.129 546.297 121.215C546.656 121.293 546.98 121.414 547.27 121.578C547.488 121.695 547.691 121.836 547.879 122C548.066 122.156 548.238 122.332 548.395 122.527L548.523 121.32H551.488V133.59C551.488 134.449 551.34 135.215 551.043 135.887C550.754 136.559 550.348 137.125 549.824 137.586C549.293 138.047 548.656 138.395 547.914 138.629C547.18 138.871 546.367 138.992 545.477 138.992C545.094 138.992 544.684 138.953 544.246 138.875C543.809 138.797 543.375 138.676 542.945 138.512C542.516 138.348 542.109 138.137 541.727 137.879C541.344 137.629 541.016 137.328 540.742 136.977L542.207 134.996C542.418 135.238 542.645 135.449 542.887 135.629C543.129 135.816 543.383 135.969 543.648 136.086C543.906 136.203 544.172 136.289 544.445 136.344C544.727 136.406 545.016 136.438 545.313 136.438C545.789 136.438 546.211 136.371 546.578 136.238C546.953 136.105 547.266 135.91 547.516 135.652C547.742 135.418 547.914 135.129 548.031 134.785C548.156 134.441 548.219 134.055 548.219 133.625V132.898C548.063 133.07 547.898 133.227 547.727 133.367C547.555 133.508 547.371 133.633 547.176 133.742C546.887 133.898 546.566 134.02 546.215 134.105C545.871 134.191 545.5 134.234 545.102 134.234C544.313 134.234 543.602 134.074 542.969 133.754C542.344 133.426 541.809 132.977 541.363 132.406C540.918 131.836 540.574 131.16 540.332 130.379C540.098 129.59 539.98 128.734 539.98 127.813V127.566ZM543.25 127.813C543.25 128.344 543.301 128.84 543.402 129.301C543.512 129.754 543.676 130.148 543.895 130.484C544.113 130.828 544.391 131.098 544.727 131.293C545.063 131.488 545.461 131.586 545.922 131.586C546.203 131.586 546.457 131.559 546.684 131.504C546.918 131.449 547.129 131.371 547.316 131.27C547.512 131.16 547.684 131.027 547.832 130.871C547.98 130.715 548.109 130.539 548.219 130.344V124.977C548.102 124.758 547.961 124.566 547.797 124.402C547.633 124.238 547.445 124.105 547.234 124.004C547.055 123.918 546.855 123.852 546.637 123.805C546.426 123.758 546.195 123.734 545.945 123.734C545.484 123.734 545.086 123.836 544.75 124.039C544.414 124.234 544.137 124.504 543.918 124.848C543.691 125.199 543.523 125.609 543.414 126.078C543.305 126.539 543.25 127.035 543.25 127.566V127.813ZM554.723 134V121.32H557.676L557.875 123.078C558.039 122.844 558.219 122.629 558.414 122.434C558.609 122.238 558.816 122.063 559.035 121.906C559.41 121.641 559.82 121.438 560.266 121.297C560.711 121.156 561.184 121.086 561.684 121.086C562.324 121.086 562.91 121.18 563.441 121.367C563.973 121.555 564.434 121.852 564.824 122.258C565.207 122.672 565.504 123.203 565.715 123.852C565.934 124.492 566.043 125.273 566.043 126.195V134H562.785V126.242C562.785 125.742 562.727 125.332 562.609 125.012C562.5 124.684 562.34 124.426 562.129 124.238C561.918 124.051 561.664 123.922 561.367 123.852C561.07 123.773 560.734 123.734 560.359 123.734C560.047 123.734 559.758 123.77 559.492 123.84C559.234 123.91 559.004 124.016 558.801 124.156C558.637 124.258 558.488 124.379 558.355 124.52C558.223 124.66 558.102 124.816 557.992 124.988V134H554.723Z" fill="#27282D"/>
</g>
</g>
<defs>
<clipPath id="clip0_488_434">
<rect width="650" height="349" fill="white"/>
</clipPath>
</defs>
</svg>
